<?xml version="1.0" encoding="utf-8"?>
<!-- Generator: Adobe Illustrator 16.0.0, SVG Export Plug-In . SVG Version: 6.00 Build 0)  -->
<!DOCTYPE svg PUBLIC "-//W3C//DTD SVG 1.1//EN" "http://www.w3.org/Graphics/SVG/1.1/DTD/svg11.dtd">
<svg version="1.1" id="Layer_1" xmlns="http://www.w3.org/2000/svg" xmlns:xlink="http://www.w3.org/1999/xlink" x="0px" y="0px"
	 width="256px" height="256px" viewBox="0 0 256 256" enable-background="new 0 0 256 256" xml:space="preserve">
<g>
	<g>
		<rect x="10.502" y="142.25" fill="#9A6A53" width="234.996" height="110.003"/>
		<rect x="10.502" y="232.25" fill="#5F6C75" width="234.996" height="20.003"/>
		<polygon fill="#9A6A53" points="252.25,147.912 207.999,172.91 48,172.91 3.75,147.912 3.75,82.908 252.25,82.908 		"/>
		<path fill="#5F6C75" d="M63,217.908L63,217.908c-8.283,0-15-6.715-15-14.998v-30h30v30C78,211.193,71.286,217.908,63,217.908z"/>
		<path fill="#5F6C75" d="M192.997,217.908L192.997,217.908c-8.283,0-14.997-6.715-14.997-14.998v-30h29.999v30
			C207.999,211.193,201.283,217.908,192.997,217.908z"/>
		<path fill="#E9EDF1" d="M172.997,127.908H82.999c-5.523,0-9.996-4.478-9.996-9.996l0,0c0-5.525,4.473-10.004,9.996-10.004h89.998
			c5.524,0,10.003,4.479,10.003,10.004l0,0C183,123.431,178.521,127.908,172.997,127.908z"/>
		<path fill="#5F6C75" d="M63,52.91v29.999h15V57.91h100v24.999h14.997V52.91c0-5.522-4.474-10.002-9.997-10.002H73.003
			C67.476,42.908,63,47.387,63,52.91z"/>
		<path fill="#9EC8FC" d="M209.035,113.747L209.035,113.747L209.035,113.747c-26.068-10.222-43.215-35.37-43.215-63.372V20.703
			l26.596-5.166l43.215,16.953l-6.557,15.76C229.074,76.252,235.104,103.525,209.035,113.747z"/>
		<g>
			<path fill="#E9EDF1" d="M204.172,76.25c-1.625,0-3.251-0.621-4.488-1.861l-14.436-14.434l8.977-8.98l9.947,9.948l19.674-19.673
				l8.979,8.979l-24.161,24.16C207.422,75.629,205.796,76.25,204.172,76.25z"/>
		</g>
	</g>
	<g>
		<path fill="#333333" d="M172.997,104.158H82.999c-7.581,0-13.747,6.171-13.747,13.754c0,7.579,6.166,13.747,13.747,13.747h89.998
			c7.585,0,13.752-6.168,13.752-13.747C186.749,110.329,180.582,104.158,172.997,104.158z M172.997,124.161H82.999
			c-3.444,0-6.248-2.807-6.248-6.249c0-3.449,2.804-6.253,6.248-6.253h89.998c3.451,0,6.253,2.804,6.253,6.253
			C179.25,121.354,176.448,124.161,172.997,124.161z"/>
		<path fill="#333333" d="M239.381,32.49c0-1.542-0.945-2.927-2.381-3.49l-43.213-16.955c-0.883-0.344-1.859-0.344-2.741,0
			l-26.595,5.167c-1.436,0.563-2.381,1.948-2.381,3.49V39.16H73.003c-7.585,0-13.754,6.167-13.754,13.749v26.25H3.75
			c-2.07,0-3.75,1.679-3.75,3.749v65.004c0,1.352,0.729,2.597,1.906,3.263l4.845,2.737v98.341c0,2.069,1.679,3.747,3.752,3.747
			h234.996c2.073,0,3.752-1.678,3.752-3.747v-98.341l4.845-2.737c1.176-0.666,1.905-1.911,1.905-3.263V82.908
			c0-2.07-1.681-3.749-3.75-3.749h-2.265c0,0-17.162-20.909-17.162-30.909L239.381,32.49z M169.568,23.26l22.848-3.694
			l39.464,15.481l-6.557,13.203c0,26.152,7.735,51.405-16.288,61.455c-24.023-10.05-39.467-33.178-39.467-59.33V23.26z
			 M168.083,79.159H81.75v-17.5h81.213C163.918,67.698,165.632,73.57,168.083,79.159z M66.748,52.91c0-3.449,2.807-6.25,6.255-6.25
			h89.067v3.715c0,1.265,0.048,2.527,0.111,3.786H78c-2.072,0-3.749,1.679-3.749,3.749v21.25h-7.503V52.91z M14.25,248.499V236
			h227.5v12.499H14.25z M241.75,228.502H14.25v-70.354l30,16.949v27.813c0,10.338,8.411,18.749,18.75,18.749
			c10.338,0,18.75-8.411,18.75-18.749v-26.25h92.5v26.25c0,10.338,8.409,18.749,18.747,18.749c10.341,0,18.754-8.411,18.754-18.749
			v-27.813l29.999-16.949V228.502z M51.751,176.66h22.5v26.25c0,6.201-5.048,11.248-11.251,11.248
			c-6.202,0-11.248-5.047-11.248-11.248L51.751,176.66L51.751,176.66z M181.749,176.66h22.499v26.25
			c0,6.201-5.045,11.248-11.251,11.248c-6.2,0-11.248-5.047-11.248-11.248V176.66L181.749,176.66z M248.499,86.658v59.063
			l-41.485,23.439H48.987L7.5,145.721V86.658h164.414c0.834,1.419,1.707,2.814,2.641,4.182c8.166,11.976,19.617,21.105,33.11,26.399
			c0.44,0.176,0.903,0.262,1.37,0.262c0.465,0,0.927-0.086,1.371-0.262c13.492-5.294,24.943-14.424,33.109-26.399
			c0.932-1.367,1.809-2.763,2.637-4.182H248.499z"/>
		<path fill="#333333" d="M204.172,80.001c2.699,0,5.234-1.052,7.141-2.958l24.162-24.164c1.465-1.464,1.465-3.835,0-5.301
			l-8.977-8.979c-0.705-0.705-1.657-1.099-2.652-1.099c-0.996,0-1.949,0.394-2.65,1.098l-17.022,17.021l-7.296-7.295
			c-1.463-1.464-3.838-1.464-5.304,0l-8.978,8.979c-0.705,0.702-1.099,1.657-1.099,2.653c0,0.992,0.394,1.947,1.099,2.65
			l14.437,14.437C198.938,78.949,201.477,80.001,204.172,80.001z M194.225,56.278l7.295,7.297c1.467,1.464,3.84,1.464,5.306,0
			l17.021-17.021l3.676,3.676l-21.51,21.51c-0.49,0.49-1.146,0.759-1.839,0.759c-0.692,0-1.345-0.269-1.838-0.759L190.55,59.956
			L194.225,56.278z"/>
		<path fill="#333333" d="M61.75,206.66h2.502c2.07,0,3.748-1.68,3.748-3.75s-1.678-3.75-3.748-3.75H61.75
			c-2.07,0-3.752,1.68-3.752,3.75S59.68,206.66,61.75,206.66z"/>
		<path fill="#333333" d="M191.748,206.66h2.502c2.073,0,3.75-1.68,3.75-3.75s-1.677-3.75-3.75-3.75h-2.502
			c-2.068,0-3.748,1.68-3.748,3.75S189.68,206.66,191.748,206.66z"/>
	</g>
</g>
<g>
	<path fill="#9EC8FC" d="M197.25,143.75L197.25,143.75L197.25,143.75c-33.178-13.016-55-45.02-55-80.659V25.327l55-21.577l55,21.577
		v37.765C252.25,98.73,230.427,130.734,197.25,143.75z"/>
	<path fill="#E9EDF1" d="M191.346,94.999c-1.975,0-3.945-0.751-5.451-2.257l-17.531-17.53l10.902-10.903l12.08,12.08L215.232,52.5
		l10.901,10.902l-29.339,29.34C195.29,94.248,193.316,94.999,191.346,94.999z"/>
	<path fill="none" d="M146,27.883v35.208c0,33.846,20.064,63.756,51.25,76.616c31.186-12.86,51.25-42.77,51.25-76.616V27.883
		L197.25,7.777L146,27.883z"/>
	<path fill="#333333" d="M253.619,21.834l-55-21.575c-0.881-0.346-1.857-0.346-2.74,0L140.88,21.834
		c-1.437,0.563-2.381,1.949-2.381,3.492v37.765c0,18.243,5.435,35.852,15.712,50.926c0.214,0.313,5.789,7.586,5.789,7.586
		c4.466,5.27,9.491,9.985,15.001,14.073l7.499,4.99c4.247,2.535,8.712,4.744,13.379,6.574c0.441,0.172,0.906,0.26,1.371,0.26
		s0.93-0.088,1.369-0.26c16.982-6.662,31.393-18.152,41.671-33.225C250.566,98.943,256,81.333,256,63.09V25.326
		C256,23.784,255.057,22.398,253.619,21.834z M248.5,63.091c0,33.846-20.064,63.756-51.25,76.616
		C166.064,126.847,146,96.937,146,63.091V27.883l51.25-20.106l51.25,20.106V63.091z"/>
	<path fill="#333333" d="M181.918,61.657c-1.466-1.464-3.839-1.464-5.305,0L165.712,72.56c-1.464,1.463-1.464,3.836,0,5.303
		l17.53,17.529c2.164,2.166,5.043,3.355,8.104,3.355c3.062,0,5.938-1.189,8.103-3.355l29.341-29.338
		c1.465-1.467,1.465-3.841,0-5.305l-10.902-10.902c-1.465-1.464-3.84-1.464-5.303,0l-21.236,21.236L181.918,61.657z M215.232,57.804
		l5.601,5.598L194.145,90.09c-0.748,0.748-1.742,1.159-2.799,1.159c-1.059,0-2.053-0.411-2.8-1.159l-14.879-14.878l5.599-5.6
		l9.43,9.428c1.463,1.464,3.837,1.464,5.303,0L215.232,57.804z"/>
</g>
</svg>
