<?xml version="1.0" encoding="utf-8"?>
<!-- Generator: Adobe Illustrator 16.0.0, SVG Export Plug-In . SVG Version: 6.00 Build 0)  -->
<!DOCTYPE svg PUBLIC "-//W3C//DTD SVG 1.1//EN" "http://www.w3.org/Graphics/SVG/1.1/DTD/svg11.dtd">
<svg version="1.1" id="Layer_1" xmlns="http://www.w3.org/2000/svg" xmlns:xlink="http://www.w3.org/1999/xlink" x="0px" y="0px"
	 width="256px" height="256px" viewBox="0 0 256 256" enable-background="new 0 0 256 256" xml:space="preserve">
<g>
	<path fill="#95D6A4" d="M128,190.432L128,190.432L128,190.432c-24.005-9.38-39.797-32.439-39.797-58.109v-27.199L128,89.577
		l39.797,15.546v27.199C167.797,157.992,152.004,181.052,128,190.432z"/>
	<path fill="none" d="M90.936,106.956v25.366c0,24.391,14.512,45.924,37.064,55.197c22.553-9.273,37.065-30.807,37.065-55.197
		v-25.366L128,92.479L90.936,106.956z"/>
	<path fill="#333333" d="M168.785,102.605l-39.797-15.539c-0.627-0.25-1.35-0.25-1.979,0l-39.796,15.539
		c-1.024,0.408-1.714,1.407-1.714,2.518v27.199c0,13.146,3.941,25.819,11.363,36.693c0.15,0.219,4.199,5.465,4.199,5.465
		c3.23,3.79,6.859,7.188,10.846,10.133l5.424,3.59c3.074,1.817,6.309,3.411,9.678,4.728c0.314,0.139,0.652,0.194,0.99,0.194
		s0.676-0.056,0.988-0.194c12.285-4.798,22.708-13.069,30.149-23.915c7.422-10.874,11.362-23.548,11.362-36.693v-27.2
		C170.5,104.013,169.811,103.014,168.785,102.605z M165.065,132.322c0,24.391-14.513,45.924-37.065,55.197
		c-22.553-9.273-37.064-30.807-37.064-55.197v-25.366L128,92.479l37.065,14.478V132.322z"/>
</g>
<polygon fill="#9A6A53" points="232.999,48.751 23,48.751 23,33.75 128,3.75 232.999,33.75 "/>
<rect x="13" y="48.751" fill="#5F6C75" width="230" height="15"/>
<rect x="3.75" y="232.25" fill="#9A6A53" width="248.5" height="20"/>
<rect x="13" y="217.251" fill="#5F6C75" width="230" height="14.999"/>
<rect x="28" y="177.25" fill="#9A6A53" width="40" height="40.001"/>
<rect x="28" y="63.751" fill="#9A6A53" width="40" height="20"/>
<rect x="38" y="83.751" fill="#5F6C75" width="20" height="93.499"/>
<rect x="188" y="177.25" fill="#9A6A53" width="40" height="40.001"/>
<rect x="188" y="63.751" fill="#9A6A53" width="40" height="20"/>
<rect x="197.999" y="83.751" fill="#5F6C75" width="20" height="93.499"/>
<path fill="#333333" d="M252.25,228.5h-5.5v-11.249c0-2.071-1.68-3.75-3.75-3.75h-11.251V177.25c0-2.071-1.678-3.749-3.749-3.749
	h-6.251V87.5H228c2.071,0,3.749-1.678,3.749-3.749v-16.25H243c2.07,0,3.75-1.679,3.75-3.75v-15c0-2.072-1.68-3.751-3.75-3.751
	h-6.251V33.75c0-1.675-1.109-3.145-2.719-3.605l-105-30c-0.674-0.193-1.387-0.193-2.062,0l-104.999,30
	c-1.61,0.46-2.72,1.93-2.72,3.605V45H13c-2.071,0-3.75,1.679-3.75,3.751v15c0,2.071,1.678,3.75,3.75,3.75h11.25v16.25
	c0,2.071,1.68,3.749,3.751,3.749h6.25v86.001H28c-2.071,0-3.751,1.678-3.751,3.749v36.251H13c-2.071,0-3.75,1.679-3.75,3.75V228.5
	h-5.5c-2.072,0-3.75,1.679-3.75,3.75v20c0,2.072,1.678,3.75,3.75,3.75h248.5c2.071,0,3.75-1.678,3.75-3.75v-20
	C256,230.179,254.321,228.5,252.25,228.5z M224.25,213.501h-32.5V181h32.5V213.501z M68.001,173.501h-6.25V87.5h6.25
	c2.07,0,3.75-1.678,3.75-3.749v-16.25h112.498v16.25c0,2.071,1.68,3.749,3.751,3.749h6.249v86.001H188
	c-2.071,0-3.751,1.678-3.751,3.749v36.251H71.751V177.25C71.751,175.179,70.071,173.501,68.001,173.501z M214.25,173.501h-12.501
	V87.5h12.501V173.501z M224.25,80.001h-32.5v-12.5h32.5V80.001z M26.751,36.579L128,7.65l101.249,28.929V45H26.751V36.579z
	 M16.75,52.501h222.5v7.5H16.75V52.501z M31.75,67.501H64.25v12.5H31.75V67.501z M41.75,87.5h12.5v86.001h-12.5V87.5z M31.75,181
	H64.25v32.501H31.75V181z M16.75,221.001h222.5v7.499H16.75V221.001z M248.5,248.501H7.5V236h241V248.501z"/>
<path fill="#333333" d="M143,30.001h-30c-2.071,0-3.749,1.678-3.749,3.75c0,2.072,1.678,3.751,3.749,3.751h30
	c2.071,0,3.749-1.68,3.749-3.751C146.749,31.679,145.071,30.001,143,30.001z"/>
<path fill="#333333" d="M125.501,25.001h4.999c2.07,0,3.749-1.68,3.749-3.751c0-2.07-1.679-3.75-3.749-3.75h-4.999
	c-2.071,0-3.751,1.68-3.751,3.75C121.75,23.322,123.43,25.001,125.501,25.001z"/>
<g>
	<path fill="#FFFFFF" d="M132.122,162.336c-1.676,0-3.17-0.795-4.122-2.027c-0.953,1.232-2.447,2.027-4.124,2.027
		c-2.861,0-5.189-2.331-5.189-5.195v-1.568c-2.183-0.612-3.787-2.616-3.787-4.986c0-2.859,2.328-5.186,5.19-5.186h11.404
		c0.645,0,1.188-0.634,1.188-1.385c0-0.759-0.533-1.376-1.188-1.376h-6.99c-6.388,0-11.584-5.271-11.584-11.749
		c0-4.256,2.215-8.075,5.767-10.152v-2.973c0-2.855,2.328-5.179,5.189-5.179c1.677,0,3.171,0.793,4.124,2.021
		c0.952-1.229,2.446-2.021,4.122-2.021c2.861,0,5.189,2.323,5.189,5.179v1.572c2.182,0.614,3.786,2.623,3.786,4.999
		c0,2.855-2.329,5.178-5.191,5.178h-11.402c-0.655,0-1.188,0.617-1.188,1.376c0,0.748,0.544,1.381,1.188,1.381h6.99
		c6.388,0,11.584,5.269,11.584,11.744c0,4.266-2.215,8.091-5.767,10.167v2.958C137.312,160.005,134.983,162.336,132.122,162.336z"/>
	<g>
		<path fill="#333333" d="M132.122,115.087c1.491,0,2.689,1.208,2.689,2.679v3.879h1.095c1.494,0,2.691,1.204,2.691,2.692
			c0,1.486-1.197,2.678-2.691,2.678h-11.402c-2.034,0-3.688,1.737-3.688,3.876s1.654,3.881,3.688,3.881h6.99
			c5.013,0,9.084,4.154,9.084,9.244c0,3.911-2.385,7.265-5.767,8.613v4.512c0,1.487-1.198,2.695-2.689,2.695
			c-1.494,0-2.704-1.208-2.704-2.695v-3.876h-2.836v3.876c0,1.487-1.212,2.695-2.706,2.695c-1.491,0-2.689-1.208-2.689-2.695v-3.876
			h-1.097c-1.492,0-2.69-1.191-2.69-2.679s1.198-2.686,2.69-2.686h11.404c2.034,0,3.688-1.747,3.688-3.885
			c0-2.139-1.654-3.876-3.688-3.876h-6.99c-5.013,0-9.084-4.142-9.084-9.249c0-3.898,2.385-7.248,5.767-8.599v-4.526
			c0-1.471,1.198-2.679,2.689-2.679c1.494,0,2.706,1.208,2.706,2.679v3.879h2.836v-3.879
			C129.418,116.295,130.628,115.087,132.122,115.087 M132.122,110.087c-1.516,0-2.93,0.438-4.122,1.194
			c-1.193-0.756-2.608-1.194-4.124-1.194c-4.24,0-7.689,3.444-7.689,7.679v1.627c-3.585,2.634-5.767,6.853-5.767,11.498
			c0,5.323,2.901,9.975,7.188,12.421c-3.026,1.034-5.208,3.904-5.208,7.274c0,2.813,1.522,5.276,3.787,6.614
			c0.032,4.216,3.47,7.636,7.689,7.636c1.516,0,2.931-0.439,4.124-1.197c1.192,0.758,2.606,1.197,4.122,1.197
			c4.24,0,7.689-3.452,7.689-7.695v-1.612c3.585-2.634,5.767-6.858,5.767-11.513c0-5.319-2.898-9.968-7.183-12.414
			c3.023-1.034,5.202-3.9,5.202-7.265c0-2.817-1.521-5.285-3.786-6.625C139.782,113.503,136.344,110.087,132.122,110.087
			L132.122,110.087z"/>
	</g>
</g>
</svg>
