<?xml version="1.0" encoding="utf-8"?>
<!-- Generator: Adobe Illustrator 16.0.0, SVG Export Plug-In . SVG Version: 6.00 Build 0)  -->
<!DOCTYPE svg PUBLIC "-//W3C//DTD SVG 1.1//EN" "http://www.w3.org/Graphics/SVG/1.1/DTD/svg11.dtd">
<svg version="1.1" id="Layer_1" xmlns="http://www.w3.org/2000/svg" xmlns:xlink="http://www.w3.org/1999/xlink" x="0px" y="0px"
	 width="256px" height="256px" viewBox="0 0 256 256" enable-background="new 0 0 256 256" xml:space="preserve">
<g>
	<g>
		<rect x="3.75" y="3.75" fill="#FFC250" width="175.001" height="248.5"/>
		<path fill="#E9EDF1" d="M23.75,222.249V33.75c0-5.523,4.477-10,10.001-10h114.998c5.522,0,10.001,4.477,10.001,10v188.499
			c0,5.522-4.479,10.001-10.001,10.001H33.751C28.227,232.25,23.75,227.771,23.75,222.249z"/>
		<path fill="#5F6C75" d="M116.25,38.75H66.249c-5.522,0-9.999-4.477-9.999-10v-25h70v25C126.25,34.272,121.772,38.75,116.25,38.75z
			"/>
		<polygon fill="#D84C5A" points="121.249,81.25 98.75,81.25 98.75,58.75 83.75,58.75 83.75,81.25 61.25,81.25 61.25,96.25 
			83.75,96.25 83.75,118.749 98.75,118.749 98.75,96.25 121.249,96.25 		"/>
		<path fill="#E55C5C" d="M197.25,252.25L197.25,252.25L197.25,252.25c-33.178-13.016-55-45.02-55-80.658v-37.765l55-21.577
			l55,21.577v37.765C252.25,207.23,230.427,239.234,197.25,252.25z"/>
		<g>
			<path fill="#E9EDF1" d="M191.346,203.499c-1.975,0-3.945-0.751-5.451-2.257l-17.531-17.53l10.902-10.903l12.08,12.08L215.232,161
				l10.901,10.902l-29.339,29.34C195.29,202.748,193.316,203.499,191.346,203.499z"/>
		</g>
	</g>
	<g>
		<path fill="#333333" d="M61.25,100h18.751v18.749c0,2.071,1.678,3.751,3.749,3.751h15c2.071,0,3.75-1.68,3.75-3.751V100h18.749
			c2.071,0,3.75-1.679,3.75-3.75v-15c0-2.071-1.679-3.75-3.75-3.75H102.5V58.75c0-2.07-1.679-3.75-3.75-3.75h-15
			c-2.071,0-3.749,1.679-3.749,3.75V77.5H61.25c-2.07,0-3.75,1.679-3.75,3.75v15C57.5,98.321,59.18,100,61.25,100z M65,85h18.75
			c2.072,0,3.75-1.679,3.75-3.75V62.5H95v18.75c0,2.071,1.679,3.75,3.75,3.75h18.749v7.5H98.75c-2.071,0-3.75,1.679-3.75,3.75
			v18.749h-7.5V96.25c0-2.071-1.678-3.75-3.75-3.75H65V85z"/>
		<path fill="#333333" d="M67.5,143.75c0,2.07,1.679,3.75,3.75,3.75h55c2.071,0,3.75-1.68,3.75-3.75s-1.679-3.75-3.75-3.75h-55
			C69.179,140,67.5,141.68,67.5,143.75z"/>
		<path fill="#333333" d="M46.25,147.5h10c2.07,0,3.75-1.68,3.75-3.75S58.32,140,56.25,140h-10c-2.071,0-3.751,1.68-3.751,3.75
			S44.179,147.5,46.25,147.5z"/>
		<path fill="#333333" d="M46.25,167.5h80c2.071,0,3.75-1.68,3.75-3.75s-1.679-3.751-3.75-3.751h-80
			c-2.071,0-3.751,1.681-3.751,3.751C42.5,165.82,44.179,167.5,46.25,167.5z"/>
		<path fill="#333333" d="M46.25,187.5h80c2.071,0,3.75-1.68,3.75-3.751c0-2.069-1.679-3.75-3.75-3.75h-80
			c-2.071,0-3.751,1.681-3.751,3.75C42.5,185.82,44.179,187.5,46.25,187.5z"/>
		<path fill="#333333" d="M111.25,199.999h-65c-2.071,0-3.751,1.679-3.751,3.75s1.68,3.75,3.751,3.75h65
			c2.072,0,3.75-1.679,3.75-3.75S113.322,199.999,111.25,199.999z"/>
		<path fill="#333333" d="M131.251,199.999h-5.001c-2.071,0-3.75,1.679-3.75,3.75s1.679,3.75,3.75,3.75h5.001
			c2.071,0,3.749-1.679,3.749-3.75S133.322,199.999,131.251,199.999z"/>
		<path fill="#333333" d="M76.251,25h29.999c2.071,0,3.75-1.678,3.75-3.749c0-2.072-1.679-3.75-3.75-3.75H76.251
			c-2.071,0-3.751,1.679-3.751,3.75C72.5,23.321,74.18,25,76.251,25z"/>
		<path fill="#333333" d="M253.619,130.335l-55-21.575c-0.881-0.346-1.857-0.346-2.74,0l-13.379,5.247V3.75
			c0-2.071-1.678-3.75-3.749-3.75H3.75C1.678,0,0,1.679,0,3.75v248.5c0,2.07,1.678,3.75,3.75,3.75h175.001
			c2.071,0,3.749-1.68,3.749-3.75v-3.084c4.247,2.535,8.712,4.744,13.379,6.575c0.441,0.172,0.906,0.259,1.371,0.259
			s0.93-0.087,1.369-0.259c16.982-6.663,31.393-18.152,41.671-33.226c10.276-15.072,15.71-32.682,15.71-50.925v-37.765
			C256,132.284,255.057,130.898,253.619,130.335z M175.001,116.95l-12.501,4.903V33.75c0-7.582-6.169-13.75-13.751-13.75H130V7.5
			h45.001V116.95z M154.211,222.518c0.214,0.313,0.439,0.619,0.659,0.93c-0.565,2.867-3.108,5.054-6.121,5.054H33.751
			c-3.447,0-6.251-2.806-6.251-6.251V33.75c0-3.446,2.804-6.25,6.251-6.25H52.5v1.25c0,7.583,6.168,13.75,13.749,13.75h50.001
			c7.582,0,13.75-6.168,13.75-13.75V27.5h18.749c3.446,0,6.252,2.804,6.252,6.25v91.047l-14.121,5.538
			c-1.437,0.563-2.381,1.949-2.381,3.492v37.765C138.499,189.835,143.934,207.443,154.211,222.518z M60,7.5h62.5v21.25
			c0,3.447-2.805,6.25-6.25,6.25H66.249C62.805,35,60,32.196,60,28.75V7.5z M175.001,248.5H7.5V7.5h45V20H33.751
			C26.168,20,20,26.168,20,33.75v188.499C20,229.832,26.168,236,33.751,236h114.998c4.624,0,8.753-2.34,11.251-5.896
			c4.466,5.27,9.491,9.985,15.001,14.072V248.5z M248.5,171.592c0,33.846-20.064,63.756-51.25,76.616
			c-31.186-12.86-51.25-42.771-51.25-76.616v-35.208l51.25-20.106l51.25,20.106V171.592z"/>
		<path fill="#333333" d="M181.918,170.157c-1.466-1.464-3.839-1.464-5.305,0l-10.901,10.903c-1.464,1.463-1.464,3.836,0,5.303
			l17.53,17.529c2.164,2.166,5.043,3.355,8.104,3.355c3.062,0,5.938-1.189,8.103-3.355l29.341-29.338
			c1.465-1.467,1.465-3.841,0-5.305l-10.902-10.902c-1.465-1.464-3.84-1.464-5.303,0l-21.236,21.236L181.918,170.157z
			 M215.232,166.305l5.601,5.598l-26.688,26.688c-0.748,0.748-1.742,1.159-2.799,1.159c-1.059,0-2.053-0.411-2.8-1.159
			l-14.879-14.878l5.599-5.6l9.43,9.428c1.463,1.464,3.837,1.464,5.303,0L215.232,166.305z"/>
	</g>
</g>
</svg>
