<?xml version="1.0" encoding="utf-8"?>
<!-- Generator: Adobe Illustrator 16.0.0, SVG Export Plug-In . SVG Version: 6.00 Build 0)  -->
<!DOCTYPE svg PUBLIC "-//W3C//DTD SVG 1.1//EN" "http://www.w3.org/Graphics/SVG/1.1/DTD/svg11.dtd">
<svg version="1.1" id="Layer_1" xmlns="http://www.w3.org/2000/svg" xmlns:xlink="http://www.w3.org/1999/xlink" x="0px" y="0px"
	 width="256px" height="256px" viewBox="0 0 256 256" enable-background="new 0 0 256 256" xml:space="preserve">
<path fill="#FFDCD5" d="M208.552,152.473l-23.5-29.199c-3.143-3.91-2.868-9.551,0.638-13.137l0,0
	c4.324-4.418,11.592-3.841,15.162,1.205l16.822,23.756L208.552,152.473z"/>
<path fill="#FFDCD5" d="M213.768,136.705l-28.438-41.076c-2.544-3.676-2.086-8.645,1.093-11.789l0,0
	c3.889-3.849,10.256-3.481,13.671,0.794l25.142,31.44L213.768,136.705z"/>
<path fill="#FFDCD5" d="M190.991,64.177L190.991,64.177c-3.066,2.65-3.64,7.184-1.331,10.513l29.264,42.193l0,0
	c-2.139-2.129-5.295-3.071-8.361-2.296c-4.03,1.018-6.799,4.717-6.639,8.873l1.155,24.771l-5.474,5.359
	c-3.65,3.572-5.711,8.469-5.711,13.578v12.938c0,6.402,3.226,12.375,8.578,15.887v12.419h37.268v-24.454l8.814-16.986
	c2.428-4.677,3.693-9.867,3.693-15.141v-14.198c0-7.622-2.648-15.008-7.489-20.892l-42.468-51.603
	C199.462,61.701,194.357,61.268,190.991,64.177z"/>
<rect x="196.217" y="208.412" fill="#E9EDF1" width="47.743" height="14.71"/>
<rect x="196.217" y="223.122" fill="#DC4955" width="56.032" height="29.128"/>
<path fill="#FFDCD5" d="M47.448,152.473l23.499-29.199c3.145-3.91,2.871-9.551-0.638-13.137l0,0
	c-4.323-4.418-11.589-3.841-15.159,1.205l-16.824,23.756L47.448,152.473z"/>
<path fill="#FFDCD5" d="M42.233,136.705l28.439-41.076c2.542-3.676,2.081-8.645-1.093-11.789l0,0
	c-3.891-3.849-10.256-3.481-13.674,0.794l-25.138,31.44L42.233,136.705z"/>
<path fill="#FFDCD5" d="M65.011,64.177L65.011,64.177c3.063,2.65,3.64,7.184,1.329,10.513l-29.264,42.193l0,0
	c2.138-2.129,5.296-3.071,8.362-2.296c4.032,1.018,6.799,4.717,6.639,8.873L50.92,148.23l5.474,5.359
	c3.653,3.572,5.709,8.469,5.709,13.578v12.938c0,6.402-3.224,12.375-8.579,15.887v12.419H16.26v-24.454l-8.813-16.986
	c-2.431-4.677-3.697-9.867-3.697-15.141v-14.198c0-7.622,2.648-15.008,7.491-20.892l42.468-51.603
	C56.538,61.701,61.643,61.268,65.011,64.177z"/>
<rect x="12.04" y="208.412" fill="#E9EDF1" width="47.74" height="14.71"/>
<rect x="3.75" y="223.122" fill="#DC4955" width="56.03" height="29.128"/>
<path fill="#333333" d="M251.884,168.701c2.69-5.188,4.116-11.021,4.116-16.87v-14.198c0-8.47-2.965-16.735-8.348-23.272
	l-42.467-51.605c-2.015-2.447-4.863-3.945-8.026-4.213c-3.158-0.266-6.224,0.726-8.623,2.8c-4.526,3.912-5.367,10.57-1.958,15.485
	l1.156,1.67c-1.448,0.629-2.784,1.525-3.952,2.676c-4.476,4.434-5.125,11.409-1.537,16.59l4.784,6.914
	c-1.482,0.689-2.85,1.639-4.021,2.837c-4.831,4.94-5.21,12.727-0.876,18.11l17.932,22.275l-3.08,3.011
	c-4.346,4.255-6.838,10.181-6.838,16.26v12.938c0,6.99,3.172,13.5,8.578,17.799v6.755h-2.508c-2.068,0-3.748,1.678-3.748,3.751
	v43.838c0,2.068,1.68,3.75,3.748,3.75h56.032c2.071,0,3.751-1.682,3.751-3.75v-29.128c0-2.073-1.68-3.751-3.751-3.751h-4.54v-10.959
	c0-2.073-1.68-3.751-3.749-3.751h-0.469v-19.788L251.884,168.701z M189.059,86.506c0.875-0.867,1.986-1.389,3.174-1.529
	l17.932,25.855c-0.172,0.036-0.346,0.077-0.52,0.118c-2.556,0.646-4.758,2.069-6.397,3.971L188.41,93.493
	C186.898,91.311,187.173,88.374,189.059,86.506z M188.37,112.758c0.86-0.879,1.921-1.452,3.08-1.7l8.728,12.607l0.616,13.185
	l-12.819-15.926C186.021,118.493,186.191,114.984,188.37,112.758z M248.499,248.499h-48.531V226.87h48.531V248.499z
	 M199.968,219.371v-7.209h40.241v7.209H199.968z M206.225,204.661v-8.668c0-1.265-0.637-2.443-1.691-3.138
	c-4.313-2.826-6.889-7.592-6.889-12.748V167.17c0-4.074,1.674-8.048,4.586-10.896l5.472-5.359c0.769-0.747,1.176-1.784,1.125-2.854
	l-1.155-24.749c-0.091-2.368,1.51-4.507,3.811-5.089c1.707-0.431,3.547,0.074,4.799,1.317c0.023,0.028,0.052,0.051,0.078,0.072
	c0.02,0.028,0.041,0.053,0.063,0.077c0.349,0.379,0.64,0.81,0.86,1.278l0.433,0.918c2.347,4.988,3.916,10.281,4.673,15.742
	c0.262,1.875,1.867,3.234,3.709,3.234c0.172,0,0.346-0.012,0.52-0.035c2.053-0.284,3.484-2.18,3.201-4.229
	c-0.856-6.209-2.647-12.233-5.317-17.906l-0.431-0.918c-0.551-1.167-1.271-2.235-2.143-3.179c-0.025-0.026-0.055-0.051-0.078-0.077
	l-29.104-41.965c-1.222-1.76-0.92-4.14,0.698-5.537c0.859-0.743,1.953-1.099,3.084-1.002c1.132,0.094,2.148,0.63,2.871,1.505
	l42.466,51.605c4.278,5.198,6.637,11.772,6.637,18.507v14.198c0,4.651-1.132,9.289-3.272,13.414l-8.813,16.985
	c-0.275,0.533-0.423,1.127-0.423,1.728v20.703h-29.769V204.661z"/>
<path fill="#333333" d="M211.529,241.434h5.104c2.07,0,3.751-1.678,3.751-3.75c0-2.068-1.681-3.75-3.751-3.75h-5.104
	c-2.071,0-3.747,1.682-3.747,3.75C207.782,239.756,209.458,241.434,211.529,241.434z"/>
<path fill="#333333" d="M68.969,104.68l4.786-6.917c3.589-5.181,2.938-12.156-1.54-16.59c-1.163-1.15-2.504-2.047-3.949-2.676
	l1.155-1.67c3.41-4.915,2.567-11.573-1.959-15.485c-2.397-2.075-5.461-3.067-8.621-2.8c-3.161,0.269-6.011,1.767-8.027,4.213
	L8.345,114.36C2.964,120.897,0,129.163,0,137.633v14.198c0,5.849,1.424,11.679,4.117,16.87l8.392,16.172v19.788H12.04
	c-2.07,0-3.75,1.678-3.75,3.751v10.959H3.75c-2.07,0-3.75,1.678-3.75,3.751v29.128c0,2.068,1.68,3.75,3.75,3.75h56.03
	c2.073,0,3.751-1.682,3.751-3.75v-43.838c0-2.073-1.678-3.751-3.751-3.751h-2.504v-6.755c5.408-4.299,8.578-10.809,8.578-17.799
	V167.17c0-6.079-2.491-12.005-6.839-16.26l-3.076-3.012l17.93-22.274c4.335-5.384,3.955-13.17-0.88-18.11
	C71.818,106.315,70.451,105.366,68.969,104.68z M66.941,86.506c1.886,1.868,2.16,4.805,0.647,6.987l-14.833,21.426
	c-1.641-1.899-3.845-3.323-6.398-3.969c-0.175-0.041-0.351-0.082-0.522-0.118l17.933-25.855
	C64.957,85.117,66.067,85.639,66.941,86.506z M15.792,212.162H56.03v7.209H15.792V212.162z M56.03,248.499H7.501V226.87H56.03
	V248.499z M58.355,180.107c0,5.154-2.576,9.92-6.886,12.748c-1.057,0.693-1.694,1.873-1.694,3.138v8.668H20.01v-20.703
	c0-0.601-0.146-1.194-0.421-1.728l-8.815-16.985c-2.14-4.125-3.272-8.763-3.272-13.414v-14.198c0-6.732,2.356-13.309,6.637-18.507
	l42.468-51.605c0.719-0.875,1.739-1.411,2.87-1.505c1.127-0.097,2.225,0.259,3.083,1.002c1.619,1.397,1.919,3.777,0.701,5.537
	l-29.105,41.963c-0.026,0.028-0.056,0.053-0.08,0.079c-0.872,0.943-1.593,2.012-2.142,3.179l-0.433,0.918
	c-2.668,5.672-4.458,11.697-5.316,17.906c-0.284,2.049,1.148,3.943,3.2,4.229c0.175,0.023,0.348,0.036,0.518,0.036
	c1.845,0,3.451-1.36,3.71-3.235c0.754-5.462,2.329-10.757,4.674-15.742l0.431-0.918c0.223-0.469,0.513-0.899,0.864-1.278
	c0.021-0.022,0.039-0.049,0.061-0.073c0.026-0.025,0.054-0.046,0.08-0.076c1.249-1.243,3.093-1.746,4.799-1.317
	c2.301,0.582,3.902,2.721,3.812,5.061l-1.155,24.776c-0.054,1.068,0.357,2.105,1.123,2.854l5.472,5.359
	c2.914,2.85,4.585,6.822,4.585,10.896v12.936H58.355z M68.024,120.924L55.208,136.85l0.613-13.181l8.73-12.611
	c1.161,0.248,2.22,0.821,3.081,1.7C69.808,114.984,69.978,118.493,68.024,120.924z"/>
<path fill="#333333" d="M39.367,241.434h5.103c2.073,0,3.75-1.678,3.75-3.75c0-2.068-1.676-3.75-3.75-3.75h-5.103
	c-2.072,0-3.751,1.682-3.751,3.75C35.616,239.756,37.295,241.434,39.367,241.434z"/>
<g>
	<path fill="#FFCE80" d="M128.001,127.05L128.001,127.05L128.001,127.05c-29.648-11.473-49.147-39.678-49.147-71.089V22.68
		l49.147-19.017l49.15,19.017v33.282C177.151,87.373,157.648,115.578,128.001,127.05z"/>
	<path fill="#E9EDF1" d="M122.725,84.083c-1.766,0-3.525-0.662-4.871-1.987l-15.668-15.452l9.742-9.61l10.796,10.649l21.344-21.056
		l9.741,9.609l-26.216,25.86C126.249,83.421,124.487,84.083,122.725,84.083z"/>
	<path fill="none" d="M82.203,24.932v31.029c0,29.83,17.932,56.192,45.798,67.527c27.866-11.335,45.795-37.697,45.795-67.527V24.932
		L128.001,7.21L82.203,24.932z"/>
	<path fill="#333333" d="M178.374,19.6l-49.15-19.015c-0.787-0.303-1.66-0.303-2.447,0L77.627,19.6
		c-1.282,0.499-2.127,1.718-2.127,3.08v33.282c0,16.079,4.857,31.598,14.04,44.885c0.191,0.276,5.174,6.687,5.174,6.687
		c3.99,4.645,8.482,8.798,13.405,12.401l6.701,4.397c3.795,2.236,7.785,4.184,11.957,5.799c0.394,0.147,0.81,0.228,1.225,0.228
		s0.831-0.08,1.223-0.228c15.176-5.875,28.052-16.001,37.239-29.285C175.644,87.56,180.5,72.04,180.5,55.96V22.679
		C180.5,21.318,179.656,20.099,178.374,19.6z M173.796,55.961c0,29.83-17.929,56.192-45.795,67.527
		c-27.866-11.335-45.798-37.697-45.798-67.527V24.932L128.001,7.21l45.795,17.722V55.961z"/>
	<path fill="#333333" d="M114.299,54.697c-1.309-1.289-3.429-1.289-4.739,0l-9.741,9.61c-1.31,1.29-1.31,3.381,0,4.675
		l15.665,15.448c1.932,1.911,4.505,2.958,7.241,2.958c2.737,0,5.306-1.047,7.242-2.958l26.217-25.855
		c1.308-1.294,1.308-3.385,0-4.676l-9.742-9.609c-1.308-1.289-3.429-1.289-4.739,0l-18.975,18.717L114.299,54.697z M144.069,51.303
		l5.003,4.933l-23.847,23.522c-0.668,0.659-1.557,1.022-2.5,1.022c-0.947,0-1.834-0.363-2.502-1.022l-13.296-13.113l5.001-4.934
		l8.428,8.308c1.308,1.291,3.428,1.291,4.739,0L144.069,51.303z"/>
</g>
</svg>
