<?xml version="1.0" encoding="utf-8"?>
<!-- Generator: Adobe Illustrator 16.0.0, SVG Export Plug-In . SVG Version: 6.00 Build 0)  -->
<!DOCTYPE svg PUBLIC "-//W3C//DTD SVG 1.1//EN" "http://www.w3.org/Graphics/SVG/1.1/DTD/svg11.dtd">
<svg version="1.1" id="Layer_1" xmlns="http://www.w3.org/2000/svg" xmlns:xlink="http://www.w3.org/1999/xlink" x="0px" y="0px"
	 width="256px" height="256px" viewBox="0 0 256 256" enable-background="new 0 0 256 256" xml:space="preserve">
<path fill="#142733" d="M239.857,33.032v4.625c0,9.248-1.487,18.333-4.394,26.961c-2.896,8.631-7.169,16.806-12.721,24.155
	c-5.009,6.69-7.742,14.865-7.742,23.206c0,10.239,4.104,20.109,11.353,27.335l9.363,9.331
	c-15.989,42.443-47.482,77.339-88.157,97.612l-3.86,1.937c-4.886,2.395-10.228,3.676-15.697,3.676
	c-5.474,0-10.812-1.281-15.705-3.676l-3.856-1.937c-20.335-10.161-38.36-23.951-53.354-40.508
	c-14.917-16.556-26.807-35.879-34.801-57.104l9.362-9.331c3.649-3.637,6.465-7.888,8.411-12.552
	c1.906-4.625,2.941-9.666,2.941-14.783c0-8.341-2.734-16.516-7.748-23.206C22.151,74.035,16.143,56.113,16.143,37.657v-4.625h8.286
	l8.658,4.334c5.219,2.561,10.94,3.924,16.737,3.924c14.792,0,28.17-8.671,34.179-22.131l6.712-15.03h74.572l6.708,15.03
	c2.986,6.73,7.874,12.262,13.796,16.103c5.924,3.881,12.971,6.028,20.385,6.028c5.8,0,11.519-1.363,16.739-3.924l8.659-4.334
	H239.857z"/>
<path fill="#5CADE5" d="M198.43,111.979c0-11.85,3.932-23.619,11.061-33.115c5.221-6.895,9.03-14.781,11.353-23.082
	c-4.767,1.323-9.733,2.024-14.668,2.024c-21.29,0-40.687-12.553-49.343-31.96l-2.314-5.202h-53.035l-2.316,5.202
	c-8.66,19.407-28.01,31.96-49.343,31.96c-4.932,0-9.9-0.701-14.666-2.024c2.322,8.301,6.134,16.188,11.353,23.082
	c7.124,9.496,11.06,21.266,11.06,33.115c0,14.737-5.761,28.613-16.199,39.021l-1.574,1.525
	c15.451,34.273,42.133,62.063,76.064,78.95l3.851,1.937c2.57,1.281,5.432,1.943,8.289,1.943c2.855,0,5.713-0.662,8.283-1.943
	l3.853-1.937c33.928-16.887,60.614-44.677,76.061-78.95L214.629,151C204.189,140.593,198.43,126.717,198.43,111.979z"/>
<polygon fill="#E6E9ED" points="161.144,115.613 161.144,140.388 140.43,140.388 140.43,161.032 128.002,161.032 115.57,161.032 
	115.57,140.388 94.856,140.388 94.856,115.613 115.57,115.613 115.57,94.968 128.002,94.968 140.43,94.968 140.43,115.613 "/>
<path d="M144.573,165.162h-33.146v-20.646H90.714v-33.031h20.713V90.838h33.146v20.646h20.713v33.031h-20.713V165.162z
	 M119.713,156.902h16.572v-20.645h20.714v-16.516h-20.714V99.098h-16.572v20.645H98.999v16.516h20.714V156.902z"/>
<path d="M128.002,256c-6.06,0-12.126-1.428-17.555-4.13l-3.837-1.914c-41.774-20.819-73.808-56.282-90.204-99.858l-0.936-2.492
	l11.24-11.202c6.542-6.521,10.146-15.194,10.146-24.42c0-7.423-2.46-14.782-6.93-20.722C18.368,75.898,12,56.863,12,37.661v-8.758
	h13.408l9.548,4.758c4.596,2.291,9.738,3.5,14.876,3.5c13.132,0,25.063-7.73,30.394-19.69L88.025,0h79.955l7.786,17.472
	c5.338,11.959,17.267,19.69,30.4,19.69c5.136,0,10.282-1.21,14.877-3.5l9.55-4.758H244v8.758c0,19.202-6.367,38.237-17.929,53.601
	c-4.469,5.939-6.928,13.299-6.928,20.722c0,9.226,3.6,17.899,10.146,24.42l11.24,11.202l-0.938,2.492
	c-16.393,43.576-48.427,79.039-90.203,99.858l-3.835,1.914C140.122,254.572,134.056,256,128.002,256z M25.116,149.67
	c15.929,40.487,46.097,73.414,85.201,92.899l3.839,1.915c8.56,4.266,19.13,4.266,27.689,0l3.835-1.915
	c39.109-19.485,69.274-52.412,85.204-92.899l-7.452-7.428c-8.105-8.081-12.575-18.826-12.575-30.259
	c0-9.197,3.051-18.314,8.587-25.672c10.494-13.945,16.273-31.223,16.273-48.65v-0.5h-3.165l-7.802,3.887
	c-5.744,2.859-12.167,4.371-18.583,4.371c-16.402,0-31.308-9.653-37.975-24.592l-5.601-12.568H93.404L87.8,20.827
	c-6.661,14.939-21.566,24.592-37.968,24.592c-6.417,0-12.842-1.512-18.583-4.371l-7.8-3.887h-3.164v0.5
	c0,17.427,5.777,34.705,16.268,48.65c5.538,7.357,8.589,16.475,8.589,25.672c0,11.433-4.466,22.178-12.575,30.259L25.116,149.67z"/>
<rect x="123.859" y="161.032" width="8.283" height="33.033"/>
<rect x="123.859" y="202.322" width="8.283" height="33.033"/>
<path d="M63.936,197.057c-11.466-12.778-20.856-27.186-27.908-42.818l-1.173-2.602l3.572-3.556
	c11.616-11.577,16.868-27.629,14.403-44.049c-1.174-7.822-4.673-15.798-10.406-23.705c-5.118-7.057-8.901-14.947-11.239-23.456
	l-1.942-7.053l7.06,1.983c4.422,1.246,8.974,1.875,13.53,1.875c19.67,0,37.548-11.577,45.542-29.496l3.413-7.665h33.355v41.29
	h-8.283V24.774h-19.681l-1.232,2.759C93.62,48.431,72.771,61.935,49.832,61.935c-2.829,0-5.652-0.205-8.452-0.621
	c1.986,5.049,4.583,9.795,7.759,14.174c6.513,8.987,10.515,18.181,11.886,27.326c2.821,18.803-3.098,37.206-16.251,50.613
	c6.558,13.867,15.071,26.682,25.334,38.121L63.936,197.057z"/>
<path d="M127.992,239.483c-3.502,0-7.006-0.822-10.132-2.383l-3.841-1.915c-16.406-8.182-31.287-18.928-44.222-31.94l5.882-5.814
	c12.298,12.376,26.449,22.594,42.048,30.367l3.843,1.916c3.963,1.976,8.883,1.979,12.863-0.004l3.837-1.916
	c31.952-15.919,57.765-42.262,72.95-74.366c-13.147-13.403-19.063-31.803-16.248-50.602c1.37-9.148,5.366-18.343,11.88-27.322
	c3.181-4.391,5.779-9.141,7.769-14.189c-5.884,0.868-11.821,0.847-18.141-0.217l1.383-8.146c7.792,1.311,14.8,0.832,21.831-1.149
	l7.064-1.983l-1.944,7.053c-2.336,8.499-6.124,16.399-11.246,23.472c-5.729,7.899-9.232,15.871-10.396,23.701
	c-2.461,16.416,2.789,32.464,14.4,44.037l3.57,3.556l-1.172,2.602c-15.789,35.004-43.485,63.75-77.996,80.943l-3.833,1.915
	C135,238.657,131.498,239.483,127.992,239.483z"/>
<path d="M186.851,58.601c-15.026-5.291-27.352-16.613-33.799-31.068l-1.229-2.759H140.43v-8.257h16.783l3.413,7.661
	c5.526,12.392,16.093,22.101,28.985,26.641L186.851,58.601z"/>
<rect x="123.859" y="66.064" width="8.283" height="24.773"/>
</svg>
